
<svg height='100px' width='100px'  fill="#000000" xmlns="http://www.w3.org/2000/svg" xmlns:xlink="http://www.w3.org/1999/xlink" version="1.1" x="0px" y="0px" viewBox="0 0 100 100" enable-background="new 0 0 100 100" xml:space="preserve"><g><path fill="#000000" d="M93.977,28.279v-1.585H90.54v-0.37c0-9.93-8.079-18.009-18.009-18.009H28.541   c-9.93,0-18.009,8.079-18.009,18.009v0.37H7.096v1.585h3.436v31.958H7.096v1.585h3.436V95H90.54V61.821h3.436v-1.585H90.54V28.279   H93.977z M60.709,93.415h-9.38V84.53h2.077v-1.585h-2.077V72.476h9.38V93.415z M49.744,82.945h-2.077v1.585h2.077v8.885h-9.38   V72.476h9.38V82.945z M88.956,93.415H62.294V70.892H38.779v22.524H12.117V67.194h76.839V93.415z M88.956,65.609H12.117v-3.788   h76.839V65.609z M88.956,60.237H12.117V33.651h76.839V60.237z M88.956,32.067H12.117v-3.788h76.839V32.067z M88.956,26.694H12.117   v-0.37c0-9.056,7.368-16.424,16.424-16.424h43.991c9.056,0,16.424,7.368,16.424,16.424V26.694z"></path><path fill="#000000" d="M35.643,54.597h-1.558V38.405H16.671v16.192h-1.558v1.585h20.53V54.597z M24.586,54.597h-6.33V39.99h6.33   V54.597z M32.501,54.597h-6.33V39.99h6.33V54.597z"></path><path fill="#000000" d="M35.643,87.084h-1.558V70.892H16.671v16.192h-1.558v1.585h20.53V87.084z M24.586,87.084h-6.33V72.476h6.33   V87.084z M32.501,87.084h-6.33V72.476h6.33V87.084z"></path><path fill="#000000" d="M60.962,54.597h-1.558V38.405H41.989v16.192h-1.558v1.585h20.53V54.597z M49.904,54.597h-6.33V39.99h6.33   V54.597z M57.819,54.597h-6.33V39.99h6.33V54.597z"></path><path fill="#000000" d="M86.28,54.597h-1.558V38.405H67.308v16.192H65.75v1.585h20.53V54.597z M75.223,54.597h-6.33V39.99h6.33   V54.597z M83.137,54.597h-6.33V39.99h6.33V54.597z"></path><path fill="#000000" d="M86.28,87.084h-1.558V70.892H67.308v16.192H65.75v1.585h20.53V87.084z M75.223,87.084h-6.33V72.476h6.33   V87.084z M83.137,87.084h-6.33V72.476h6.33V87.084z"></path><path fill="#000000" d="M26.664,23.351h8.187v-8.188h-8.187V23.351z M28.248,16.748h5.018v5.019h-5.018V16.748z"></path><path fill="#000000" d="M40.385,23.351h8.187v-8.188h-8.187V23.351z M41.97,16.748h5.018v5.019H41.97V16.748z"></path><path fill="#000000" d="M54.106,23.351h8.187v-8.188h-8.187V23.351z M55.691,16.748h5.018v5.019h-5.018V16.748z"></path><path fill="#000000" d="M67.828,23.351h8.187v-8.188h-8.187V23.351z M69.412,16.748h5.018v5.019h-5.018V16.748z"></path></g></svg>